#tb 0: 1/25
#media_type 0: video
#codec_id 0: rawvideo
#dimensions 0: 720x576
#sar 0: 16/15
0,          9,          9,        1,  1244160, 0xe0c2231b
0,         10,         10,        1,  1244160, 0xdc7caa43
0,         11,         11,        1,  1244160, 0x52c4dfbf
0,         12,         12,        1,  1244160, 0x7c577f07
0,         13,         13,        1,  1244160, 0x5b6ad7ce
0,         14,         14,        1,  1244160, 0x6f15ce76
0,         15,         15,        1,  1244160, 0xf120034a
0,         16,         16,        1,  1244160, 0x9c65ba64
0,         17,         17,        1,  1244160, 0x883b237e
0,         18,         18,        1,  1244160, 0xb8292e0d
0,         19,         19,        1,  1244160, 0xbc392721
0,         20,         20,        1,  1244160, 0x7cd82ec9
0,         21,         21,        1,  1244160, 0x167325eb
0,         22,         22,        1,  1244160, 0x49bafa73
0,         23,         23,        1,  1244160, 0xe1ff6dbf
0,         24,         24,        1,  1244160, 0x85f710b6
0,         25,         25,        1,  1244160, 0xd1fd4cdb
0,         26,         26,        1,  1244160, 0xafee03c5
0,         27,         27,        1,  1244160, 0x566be070
0,         28,         28,        1,  1244160, 0xb6abbd01
0,         29,         29,        1,  1244160, 0xa98f38fd
0,         30,         30,        1,  1244160, 0x00f4736b
0,         31,         31,        1,  1244160, 0x6b0f9dd2
0,         32,         32,        1,  1244160, 0x15810b92
0,         33,         33,        1,  1244160, 0x0b516465
0,         34,         34,        1,  1244160, 0x927d15e6
0,         35,         35,        1,  1244160, 0xd102f2bf
0,         36,         36,        1,  1244160, 0xdd8b3b20
0,         37,         37,        1,  1244160, 0x229ac529
0,         38,         38,        1,  1244160, 0xf844e0a2
